<?xml version="1.0" encoding="utf-8"?>
<!-- Generator: Adobe Illustrator 25.2.0, SVG Export Plug-In . SVG Version: 6.00 Build 0)  -->
<svg version="1.1" id="Layer_1" xmlns="http://www.w3.org/2000/svg" xmlns:xlink="http://www.w3.org/1999/xlink" x="0px" y="0px"
	 viewBox="0 0 369 545" style="enable-background:new 0 0 369 545;" xml:space="preserve">
<style type="text/css">
	.st0{fill:#008000;}
</style>
<path class="st0" d="M162.1,340.8L139,326.1c-1.3-0.8-2.4-1.7-3.5-2.7v180.7c0,13.7,11.1,24.9,24.9,24.9c13.7,0,24.9-11.1,24.9-24.9
	V342.5C177.6,345.9,169,345.2,162.1,340.8L162.1,340.8z"/>
<path class="st0" d="M216.2,270.9c-7.6,24.3-10,32.1-17.7,56.5c-1.2,3.8-3.3,7.2-6,9.9v166.8c0,13.7,11.1,24.9,24.9,24.9
	s24.9-11.1,24.9-24.9V275L216.2,270.9L216.2,270.9z"/>
<path class="st0" d="M149.9,85.5c4.6,17.3,20.4,30,39.2,30c22.4,0,40.6-18.2,40.6-40.6s-18.2-40.6-40.6-40.6
	c-18.8,0-34.6,12.7-39.2,30c-5.7-9.7-18.2-13.1-28.1-7.5l-83.3,47.3c-7.2,4.1-11.3,12.2-10.4,20.4s6.8,15.2,14.8,17.5l92.7,26.6
	v116.8l23.6-37.1c-3.5-6.4-5-13.9-3.8-21.6c1.5-9.3,6.6-17.2,13.7-22.3c0.3-3.4,1.4-6.7,3.3-9.7c4.9-7.7,38.4-60.6,42.8-67.5h-75.5
	L101.5,116l40.8-23C145.6,91.1,148.2,88.5,149.9,85.5L149.9,85.5z"/>
<path class="st0" d="M183.9,265.8c-6.2-1-11.7-3.6-16.2-7.2L141.9,299c-3.6,5.6-1.9,13,3.7,16.6l23.1,14.7c6.7,4.2,15.5,1,17.9-6.6
	l17.1-54.8L183.9,265.8L183.9,265.8z"/>
<path class="st0" d="M309.7,18.4c-4.2-2.7-9.8-1.4-12.5,2.8l-7.3,11.5l-6.7-4.3c-4.2-2.7-9.8-1.4-12.5,2.8s-1.4,9.8,2.8,12.5
	l6.7,4.3L185,198.3c3-0.4,6.2-0.3,9.4,0.2l29.9,4.7l0,0l53-83.7c2.7-4.2,1.4-9.8-2.8-12.5c-3.3-2.1-7.4-1.8-10.4,0.5L312.5,31
	C315.2,26.7,314,21.1,309.7,18.4L309.7,18.4z"/>
<path class="st0" d="M289.1,174.6c-0.1-12-4.6-23-12-31.3l-29.4,46.4l0.1,17.2l0.1,13.5l-55.5-8.7c-11.3-1.8-21.9,6-23.7,17.3
	s6,21.9,17.3,23.7l79.5,12.5c12.6,2,24-7.8,24-20.6C289.2,206.8,289.1,176.3,289.1,174.6L289.1,174.6z"/>
</svg>
